<svg xmlns="http://www.w3.org/2000/svg" viewBox="0 0 561.99 131.12"><defs><style>.cls-1{fill:#fff;}.cls-2{fill:#4d7eba;}</style></defs><g id="Layer_2" data-name="Layer 2"><g id="Logo"><path class="cls-1" d="M151.86,54h12.37a31,31,0,0,0,11.32-2,28.11,28.11,0,0,0,9.14-5.71,26.52,26.52,0,0,0,6.06-8.6A26.11,26.11,0,0,0,192.93,27a26.05,26.05,0,0,0-2.18-10.68,26.34,26.34,0,0,0-6.1-8.56A28.62,28.62,0,0,0,175.47,2a31.25,31.25,0,0,0-11.4-2h-21.5V54h9.29Zm12-45.89A21,21,0,0,1,174,10.49a17.73,17.73,0,0,1,6.92,6.63,18.92,18.92,0,0,1,2.5,9.8,19.53,19.53,0,0,1-2.46,9.91,17.36,17.36,0,0,1-6.87,6.67,21.18,21.18,0,0,1-10.23,2.39h-12V8.1Z"/><rect class="cls-1" x="199.97" width="9.3" height="53.99"/><path class="cls-1" d="M229.14,43.58h24.32L257.77,54h10L244.67,0H238.2L214.92,54h9.87Zm12.21-29.24,8.91,21.52h-17.9Z"/><polygon class="cls-1" points="282.75 19.42 298.11 43.5 304.58 43.5 319.94 19.42 319.94 53.99 329.24 53.99 329.24 0 322.77 0 301.35 33.64 279.92 0 273.45 0 273.45 53.99 282.75 53.99 282.75 19.42"/><path class="cls-1" d="M358.18,0,334.9,54h9.86l4.35-10.41h24.32L377.75,54h10L364.65,0Zm-5.85,35.86,9-21.52,8.91,21.52Z"/><polygon class="cls-1" points="432.64 53.99 439.11 53.99 439.11 0 429.81 0 429.81 37.26 399.9 0 393.43 0 393.43 53.99 402.73 53.99 402.73 16.73 432.64 53.99"/><polygon class="cls-1" points="463.2 53.99 472.5 53.99 472.5 8.1 490.93 8.1 490.93 0 444.76 0 444.76 8.1 463.2 8.1 463.2 53.99"/><path class="cls-1" d="M172.92,96.47a22.54,22.54,0,0,0-5.25-3q-2.88-1.16-5.74-2.08a55.11,55.11,0,0,1-5.26-2,11.84,11.84,0,0,1-3.84-2.54,5.49,5.49,0,0,1-1.45-4,5.19,5.19,0,0,1,2.38-4.55,11.61,11.61,0,0,1,6.59-1.62,13.59,13.59,0,0,1,6,1.28,17.06,17.06,0,0,1,5.06,3.89l6.3-6a20.91,20.91,0,0,0-7.15-5.33,23.24,23.24,0,0,0-10-2.08,23.72,23.72,0,0,0-9.37,1.78,15.53,15.53,0,0,0-6.67,5.12,13.33,13.33,0,0,0-2.47,8.14,14.39,14.39,0,0,0,1.46,6.87,12.46,12.46,0,0,0,3.84,4.39,24.2,24.2,0,0,0,5.25,2.82c1.91.74,3.83,1.41,5.74,2a40.09,40.09,0,0,1,5.26,2,11.29,11.29,0,0,1,3.84,2.81,6.52,6.52,0,0,1,1.45,4.4,5.79,5.79,0,0,1-2.79,5.09,13.38,13.38,0,0,1-7.48,1.85,16.67,16.67,0,0,1-8.24-1.81,17.26,17.26,0,0,1-5.58-5l-6.31,6a23.64,23.64,0,0,0,19.81,9.1q9.13,0,14.51-4.24a13.85,13.85,0,0,0,5.38-11.49,15.69,15.69,0,0,0-1.46-7.17A13.36,13.36,0,0,0,172.92,96.47Z"/><path class="cls-1" d="M231.41,76.57a28.75,28.75,0,0,0-9.17-5.94,31.07,31.07,0,0,0-22.56,0A28.25,28.25,0,0,0,184.4,85.4a26.36,26.36,0,0,0-2.22,10.8A26.65,26.65,0,0,0,184.4,107a28,28,0,0,0,6.19,8.87,29.13,29.13,0,0,0,9.21,6A29.52,29.52,0,0,0,211.12,124a29,29,0,0,0,20.33-8.1,27.32,27.32,0,0,0,6.15-8.83,27.55,27.55,0,0,0,0-21.67A27.72,27.72,0,0,0,231.41,76.57Zm-3.59,29.7a17.86,17.86,0,0,1-6.79,6.82A19.94,19.94,0,0,1,211,115.56a20.68,20.68,0,0,1-7.76-1.43A17.52,17.52,0,0,1,193.13,104a21.21,21.21,0,0,1-1.41-7.83,19.84,19.84,0,0,1,2.47-10A17.46,17.46,0,0,1,201,79.43,20,20,0,0,1,211,77a21.15,21.15,0,0,1,7.8,1.39,17.76,17.76,0,0,1,6.11,4,18,18,0,0,1,4,6.09,20.6,20.6,0,0,1,1.41,7.75A20.14,20.14,0,0,1,227.82,106.27Z"/><polygon class="cls-1" points="256.15 69.28 246.86 69.28 246.86 123.27 253.24 123.27 256.15 123.27 282.83 123.27 282.83 115.17 256.15 115.17 256.15 69.28"/><path class="cls-1" d="M323.74,102.76a13.05,13.05,0,0,1-1.7,6.74,11.75,11.75,0,0,1-4.61,4.48,13.86,13.86,0,0,1-6.71,1.58A14.2,14.2,0,0,1,304,114a12,12,0,0,1-4.73-4.48,13,13,0,0,1-1.73-6.82V69.28h-9.3v33.48a20.44,20.44,0,0,0,2.95,10.91,21.14,21.14,0,0,0,8,7.6A23.63,23.63,0,0,0,310.72,124a23.28,23.28,0,0,0,11.48-2.77,21,21,0,0,0,7.93-7.56A20.5,20.5,0,0,0,333,102.83V69.28h-9.3Z"/><polygon class="cls-1" points="338.05 77.38 356.48 77.38 356.48 123.27 365.78 123.27 365.78 77.38 384.21 77.38 384.21 69.28 338.05 69.28 338.05 77.38"/><rect class="cls-1" x="389.87" y="69.28" width="9.3" height="53.99"/><path class="cls-1" d="M455.35,76.57a28.75,28.75,0,0,0-9.17-5.94,31.07,31.07,0,0,0-22.56,0A28.25,28.25,0,0,0,408.34,85.4a26.36,26.36,0,0,0-2.22,10.8A26.65,26.65,0,0,0,408.34,107a27.83,27.83,0,0,0,6.19,8.87,29.13,29.13,0,0,0,9.21,6A29.52,29.52,0,0,0,435.06,124a29,29,0,0,0,20.33-8.1,27.32,27.32,0,0,0,6.15-8.83,27.55,27.55,0,0,0,0-21.67A27.72,27.72,0,0,0,455.35,76.57Zm-3.59,29.7a17.86,17.86,0,0,1-6.79,6.82,19.94,19.94,0,0,1-10.07,2.47,20.68,20.68,0,0,1-7.76-1.43A17.45,17.45,0,0,1,417.07,104a21.21,21.21,0,0,1-1.41-7.83,19.84,19.84,0,0,1,2.47-10,17.46,17.46,0,0,1,6.79-6.74,20,20,0,0,1,10-2.44,21.15,21.15,0,0,1,7.8,1.39,17.76,17.76,0,0,1,6.11,4,18,18,0,0,1,4,6.09,20.6,20.6,0,0,1,1.41,7.75A20.14,20.14,0,0,1,451.76,106.27Z"/><polygon class="cls-1" points="507.18 106.54 477.27 69.28 470.8 69.28 470.8 123.27 480.1 123.27 480.1 86.02 510.01 123.27 516.48 123.27 516.48 69.28 507.18 69.28 507.18 106.54"/><path class="cls-1" d="M560.53,101.14a13.45,13.45,0,0,0-3.83-4.67,22.6,22.6,0,0,0-5.26-3c-1.91-.77-3.83-1.46-5.74-2.08a56.15,56.15,0,0,1-5.26-2,11.84,11.84,0,0,1-3.84-2.54,5.53,5.53,0,0,1-1.45-4,5.19,5.19,0,0,1,2.38-4.55,11.61,11.61,0,0,1,6.59-1.62,13.67,13.67,0,0,1,6,1.28,17,17,0,0,1,5.05,3.89l6.31-6a21.05,21.05,0,0,0-7.16-5.33,23.23,23.23,0,0,0-10-2.08A23.77,23.77,0,0,0,535,70.29a15.53,15.53,0,0,0-6.67,5.12,13.33,13.33,0,0,0-2.47,8.14,14.39,14.39,0,0,0,1.46,6.87,12.66,12.66,0,0,0,3.84,4.39,24.44,24.44,0,0,0,5.25,2.82q2.88,1.11,5.74,2a39.55,39.55,0,0,1,5.26,2,11.19,11.19,0,0,1,3.84,2.81,6.52,6.52,0,0,1,1.45,4.4,5.79,5.79,0,0,1-2.79,5.09,13.37,13.37,0,0,1-7.47,1.85,16.72,16.72,0,0,1-8.25-1.81,17.26,17.26,0,0,1-5.58-5l-6.3,6a23.6,23.6,0,0,0,19.8,9.1q9.14,0,14.52-4.24A13.87,13.87,0,0,0,562,108.31,15.57,15.57,0,0,0,560.53,101.14Z"/><path class="cls-2" d="M111.38,65.56a10.51,10.51,0,0,0-7.08-9.94V40L79.42,15.15a10.42,10.42,0,0,0,1.09-4.63A10.52,10.52,0,0,0,60,7.09H20.46A10.52,10.52,0,1,0,7.09,20.46v90.19A10.52,10.52,0,1,0,20.46,124H60a10.52,10.52,0,0,0,20.47-3.44A10.4,10.4,0,0,0,79.4,116l24.9-24.9V75.5A10.52,10.52,0,0,0,111.38,65.56ZM63.71,19,54.87,35.67,20.24,14.58c.08-.21.15-.41.22-.62H60A10.53,10.53,0,0,0,63.71,19ZM18.57,17.3,53.38,38.5,15,111.07c-.34-.15-.68-.29-1-.42V20.46A10.44,10.44,0,0,0,18.57,17.3Zm-.92,95.56,38.46-72.7,35,21.35a10.53,10.53,0,0,0,0,8.1L18.58,113.82A12,12,0,0,0,17.65,112.86ZM97.43,55.62a10.52,10.52,0,0,0-4.62,3.17L57.6,37.34l8.93-16.88a10.63,10.63,0,0,0,3.45.59A10.44,10.44,0,0,0,74.55,20L97.43,42.86ZM74.54,111.14a10.41,10.41,0,0,0-4.6-1.07A10.54,10.54,0,0,0,60,117.16H20.46c-.07-.21-.14-.42-.22-.62L92.81,72.33a10.52,10.52,0,0,0,4.62,3.17V88.25Z"/></g></g></svg>